<svg width="75" height="75" viewBox="0 0 75 75" fill="none" xmlns="http://www.w3.org/2000/svg">
<path d="M70.2621 21.6425C70.0853 20.9816 69.6613 20.4288 69.0685 20.0867L66.913 18.8421C66.3202 18.4999 65.6296 18.409 64.9681 18.5863C64.3072 18.7632 63.7545 19.1872 63.4123 19.78L62.126 22.0076C61.5801 21.7512 60.9673 21.6946 60.3773 21.8525C59.7164 22.0299 59.1637 22.4539 58.8215 23.0467L58.7402 23.1869V13.6963C58.7402 10.667 56.2763 8.20312 53.2471 8.20312H45.2345C45.0554 6.96316 43.9888 6.00586 42.7002 6.00586H38.9648V3.2959C38.9648 1.47858 37.4863 0 35.6689 0H27.6123C25.795 0 24.3164 1.47858 24.3164 3.2959V6.00586H20.5811C19.2924 6.00586 18.2253 6.96316 18.0468 8.20312H10.0342C7.00493 8.20312 4.54102 10.667 4.54102 13.6963V69.5068C4.54102 72.5361 7.00493 75 10.0342 75H44.3184C44.9249 75 45.417 74.5085 45.417 73.9014C45.417 73.2943 44.9249 72.8027 44.3184 72.8027H10.0342C8.21686 72.8027 6.73828 71.3242 6.73828 69.5068V13.6963C6.73828 11.879 8.21686 10.4004 10.0342 10.4004H18.0176V15.7471C18.0176 17.1604 19.1677 18.3105 20.5811 18.3105H42.7002C44.1135 18.3105 45.2637 17.1604 45.2637 15.7471V14.7217H52.2217V34.4776L41.0425 53.8404C40.6385 54.5397 40.4554 55.335 40.5132 56.1407L41.003 63.0037C41.046 63.604 41.3813 64.1447 41.8997 64.4503C42.1858 64.6185 42.5068 64.7038 42.8295 64.7038C43.0916 64.7038 43.3542 64.6471 43.5991 64.5338L49.9151 61.6047C50.6716 61.2539 51.2918 60.6869 51.7084 59.9653L52.2217 59.0767V68.4814H11.0596V14.7217H13.9893C14.5958 14.7217 15.0879 14.2302 15.0879 13.623C15.0879 13.0159 14.5958 12.5244 13.9893 12.5244H10.6934C9.68342 12.5244 8.8623 13.3455 8.8623 14.3555V68.8477C8.8623 69.8576 9.68342 70.6787 10.6934 70.6787H52.5879C53.5973 70.6787 54.4189 69.8576 54.4189 68.8477V55.2704L56.543 51.5917V69.5068C56.543 71.3242 55.0644 72.8027 53.2471 72.8027H49.4448C48.8382 72.8027 48.3461 73.2943 48.3461 73.9014C48.3461 74.5079 48.8382 75 49.4448 75H53.2471C56.2757 75 58.7402 72.5355 58.7402 69.5068V47.7859L68.0088 31.7322L69.4731 29.1962C69.8153 28.6034 69.9062 27.9127 69.7289 27.2518C69.5709 26.6619 69.2156 26.16 68.7201 25.815L70.0064 23.5874C70.3485 22.9946 70.4395 22.304 70.2621 21.6425ZM65.3149 20.8786C65.4156 20.7041 65.6393 20.644 65.8144 20.7447L67.9699 21.9893C68.0838 22.0551 68.1255 22.1569 68.1404 22.2113C68.1547 22.2662 68.1696 22.3743 68.1038 22.4888L66.8226 24.7072L64.0343 23.0976L65.3149 20.8786ZM60.7241 24.1453C60.7899 24.0314 60.8917 23.9897 60.9461 23.9754C61.001 23.9599 61.1092 23.9456 61.223 24.0114L67.436 27.5986C67.5505 27.6644 67.5922 27.7657 67.6065 27.8206C67.6214 27.8749 67.6357 27.9837 67.5699 28.0975L66.655 29.682L59.8097 25.7298L60.7241 24.1453ZM26.5137 3.2959C26.5137 2.68993 27.0063 2.19727 27.6123 2.19727H35.6689C36.2749 2.19727 36.7676 2.68993 36.7676 3.2959V6.00586H26.5137V3.2959ZM43.0664 15.7471C43.0664 15.9491 42.9022 16.1133 42.7002 16.1133H20.5811C20.3791 16.1133 20.2148 15.9491 20.2148 15.7471V8.56934C20.2148 8.36735 20.3791 8.20312 20.5811 8.20312H42.7002C42.9022 8.20312 43.0664 8.36735 43.0664 8.56934V15.7471ZM52.5879 12.5244H45.2637V10.4004H53.2471C55.0644 10.4004 56.543 11.879 56.543 13.6963V26.9932L54.4189 30.6719V14.3555C54.4189 13.3455 53.5978 12.5244 52.5879 12.5244ZM58.7111 27.6329L65.5563 31.5851L52.0878 54.9139L45.2419 50.9617L58.7111 27.6329ZM49.8058 58.8667C49.6164 59.1946 49.3343 59.4521 48.991 59.6111V59.6117L43.1568 62.3171L42.7048 55.9845C42.6785 55.6183 42.762 55.2572 42.9457 54.9397L44.1433 52.8643L50.9892 56.8165L49.8058 58.8667Z" fill="#F08D31"/>
<path d="M15.889 61.2947C16.0978 61.4806 16.3588 61.5716 16.618 61.5716C16.9212 61.5716 17.2228 61.4469 17.4396 61.2025L19.618 58.7501L21.3043 60.7614C21.6425 61.1653 22.1386 61.4034 22.665 61.416C23.192 61.4251 23.6979 61.2134 24.0543 60.826L26.0822 58.6242L28.3298 61.1682C28.7321 61.6231 29.4262 61.666 29.8805 61.2643C30.3354 60.8626 30.3783 60.1686 29.9767 59.7137L27.4601 56.8652C27.1173 56.4773 26.6241 56.2518 26.1068 56.2467C26.1005 56.2461 26.0942 56.2461 26.0879 56.2461C25.577 56.2461 25.0872 56.4607 24.741 56.8366L22.7205 59.0304L21.0291 57.0134C20.6869 56.6054 20.1851 56.3668 19.6518 56.3588C19.1185 56.3468 18.611 56.5757 18.2573 56.9739L15.7974 59.7434C15.394 60.1972 15.4352 60.8918 15.889 61.2947Z" fill="#F08D31"/>
<path d="M48.3032 24.2432C48.3032 23.6361 47.8111 23.1445 47.2046 23.1445H16.0034C15.3969 23.1445 14.9048 23.6361 14.9048 24.2432C14.9048 24.8503 15.3969 25.3418 16.0034 25.3418H47.2046C47.8111 25.3418 48.3032 24.8503 48.3032 24.2432Z" fill="#F08D31"/>
<path d="M16.1499 31.2012H29.187C29.7935 31.2012 30.2856 30.7096 30.2856 30.1025C30.2856 29.4954 29.7935 29.0039 29.187 29.0039H16.1499C15.5434 29.0039 15.0513 29.4954 15.0513 30.1025C15.0513 30.7096 15.5434 31.2012 16.1499 31.2012Z" fill="#F08D31"/>
<path d="M40.5396 30.1025C40.5396 29.4954 40.0475 29.0039 39.4409 29.0039H34.314C33.7074 29.0039 33.2153 29.4954 33.2153 30.1025C33.2153 30.7096 33.7074 31.2012 34.314 31.2012H39.4409C40.0475 31.2012 40.5396 30.7096 40.5396 30.1025Z" fill="#F08D31"/>
<path d="M16.1499 37.0605H26.6968C27.3033 37.0605 27.7954 36.569 27.7954 35.9619C27.7954 35.3548 27.3033 34.8633 26.6968 34.8633H16.1499C15.5434 34.8633 15.0513 35.3548 15.0513 35.9619C15.0513 36.569 15.5434 37.0605 16.1499 37.0605Z" fill="#F08D31"/>
<path d="M36.3647 34.8633H31.3843C30.7777 34.8633 30.2856 35.3548 30.2856 35.9619C30.2856 36.569 30.7777 37.0605 31.3843 37.0605H36.3647C36.9713 37.0605 37.4634 36.569 37.4634 35.9619C37.4634 35.3548 36.9713 34.8633 36.3647 34.8633Z" fill="#F08D31"/>
<path d="M16.1499 42.9199H23.7671C24.3736 42.9199 24.8657 42.4284 24.8657 41.8213C24.8657 41.2142 24.3736 40.7227 23.7671 40.7227H16.1499C15.5434 40.7227 15.0513 41.2142 15.0513 41.8213C15.0513 42.4284 15.5434 42.9199 16.1499 42.9199Z" fill="#F08D31"/>
<path d="M37.4634 41.8213C37.4634 41.2142 36.9713 40.7227 36.3647 40.7227H28.4546C27.8481 40.7227 27.356 41.2142 27.356 41.8213C27.356 42.4284 27.8481 42.9199 28.4546 42.9199H36.3647C36.9713 42.9199 37.4634 42.4284 37.4634 41.8213Z" fill="#F08D31"/>
<path d="M16.1499 48.7793H23.7671C24.3736 48.7793 24.8657 48.2878 24.8657 47.6807C24.8657 47.0736 24.3736 46.582 23.7671 46.582H16.1499C15.5434 46.582 15.0513 47.0736 15.0513 47.6807C15.0513 48.2878 15.5434 48.7793 16.1499 48.7793Z" fill="#F08D31"/>
</svg>
