<svg width="75" height="73" viewBox="0 0 75 73" fill="none" xmlns="http://www.w3.org/2000/svg">
<path d="M74.8554 39.9643C74.182 33.1911 71.156 26.8056 66.3346 21.984C62.2142 17.8637 57.171 15.216 51.8643 14.0387V10.3168C54.0318 9.77754 55.6428 7.81564 55.6428 5.48372C55.6428 2.73739 53.4086 0.503174 50.6623 0.503174H40.1152C37.3689 0.503174 35.1347 2.73739 35.1347 5.48372C35.1347 7.8155 36.7457 9.77739 38.913 10.3168V14.0491C33.6226 15.2314 28.5961 17.8755 24.4874 21.9841C23.5883 22.8833 22.7592 23.8265 22.0002 24.8068C21.9635 24.804 21.9267 24.8012 21.8892 24.8012H11.4504C10.6415 24.8012 9.98556 25.457 9.98556 26.2661C9.98556 27.0751 10.6415 27.7309 11.4504 27.7309H20.007C18.933 29.5291 18.0669 31.4174 17.4077 33.3613H1.46487C0.655967 33.3613 0 34.0171 0 34.8262C0 35.6352 0.655967 36.291 1.46487 36.291H16.5799C16.1578 38.1442 15.9155 40.0303 15.8529 41.9215H9.37515C8.56625 41.9215 7.91028 42.5774 7.91028 43.3864C7.91028 44.1955 8.56625 44.8513 9.37515 44.8513H15.8997C16.0233 46.7474 16.3281 48.6336 16.8143 50.4818H7.32433C6.51543 50.4818 5.85947 51.1376 5.85947 51.9467C5.85947 52.7557 6.51543 53.4115 7.32433 53.4115H17.7492C19.1862 57.213 21.432 60.776 24.4874 63.8314C29.3136 68.6576 35.7057 71.6843 42.486 72.3541C43.4537 72.4497 44.4221 72.497 45.3892 72.497C51.1054 72.497 56.7489 70.8427 61.5376 67.7243C62.2155 67.2828 62.4073 66.3753 61.9658 65.6973C61.5243 65.0194 60.6168 64.8277 59.9388 65.2692C49.4567 72.095 35.4184 70.6192 26.5591 61.7598C16.1641 51.3648 16.1641 34.451 26.5591 24.0559C36.9539 13.661 53.8677 13.661 64.2628 24.0559C73.1105 32.9037 74.5944 46.9299 67.7911 57.4069C67.3505 58.0855 67.5434 58.9928 68.2218 59.4333C68.9006 59.8739 69.8076 59.681 70.2481 59.0025C73.883 53.4045 75.5193 46.6434 74.8554 39.9643ZM38.0644 5.48387C38.0644 4.35299 38.9843 3.43305 40.1152 3.43305H50.6623C51.7931 3.43305 52.7131 4.35299 52.7131 5.48387C52.7131 6.61474 51.7931 7.53468 50.6623 7.53468H50.3995H40.3779H40.1152C38.9843 7.53468 38.0644 6.6146 38.0644 5.48387ZM41.8427 13.5455V10.4644H48.9346V13.5402C46.5797 13.2601 44.1972 13.2619 41.8427 13.5455Z" fill="#31ABF0" fill-opacity="0.89"/>
<path d="M65.2993 61.33C64.9126 61.33 64.5361 61.4867 64.2638 61.7592C63.9899 62.0316 63.8345 62.4095 63.8345 62.7948C63.8345 63.1801 63.9899 63.558 64.2638 63.8304C64.5361 64.1044 64.9127 64.2596 65.2993 64.2596C65.6846 64.2596 66.061 64.1044 66.335 63.8304C66.6074 63.558 66.7642 63.1801 66.7642 62.7948C66.7642 62.4095 66.6076 62.0316 66.335 61.7592C66.061 61.4867 65.6844 61.33 65.2993 61.33Z" fill="#31ABF0" fill-opacity="0.89"/>
<path d="M45.411 20.1832C32.8808 20.1832 22.6867 30.3772 22.6867 42.9076C22.6867 55.4379 32.8808 65.6319 45.411 65.6319C57.9412 65.6319 68.1353 55.4379 68.1353 42.9076C68.1353 30.3772 57.9412 20.1832 45.411 20.1832ZM45.411 62.7022C34.4961 62.7022 25.6164 53.8223 25.6164 42.9076C25.6164 31.9928 34.4961 23.113 45.411 23.113C56.3259 23.113 65.2056 31.9928 65.2056 42.9076C65.2056 53.8223 56.3259 62.7022 45.411 62.7022Z" fill="#31ABF0" fill-opacity="0.89"/>
<path d="M54.6772 31.5698L47.4217 38.8252C46.8149 38.5252 46.1324 38.3557 45.411 38.3557C44.6894 38.3557 44.0071 38.5252 43.4003 38.8252L40.1532 35.578C39.581 35.006 38.6537 35.006 38.0814 35.578C37.5094 36.15 37.5094 37.0776 38.0814 37.6496L41.3286 40.8968C41.0284 41.5035 40.8591 42.186 40.8591 42.9075C40.8591 45.4174 42.901 47.4594 45.411 47.4594C47.921 47.4594 49.9629 45.4174 49.9629 42.9075C49.9629 42.186 49.7934 41.5035 49.4934 40.8968L56.5359 33.8543L56.7488 33.6414C57.3208 33.0694 57.3208 32.1419 56.7488 31.5698C56.1767 30.9978 55.2495 30.9978 54.6772 31.5698ZM45.411 44.5298C44.5166 44.5298 43.7888 43.8021 43.7888 42.9076C43.7888 42.0132 44.5166 41.2854 45.411 41.2854C46.3054 41.2854 47.0332 42.0132 47.0332 42.9076C47.0332 43.8021 46.3054 44.5298 45.411 44.5298Z" fill="#31ABF0" fill-opacity="0.89"/>
<path d="M61.0731 41.4606H59.7159C58.9071 41.4606 58.2511 42.1164 58.2511 42.9254C58.2511 43.7344 58.9071 44.3903 59.7159 44.3903H61.0731C61.882 44.3903 62.538 43.7344 62.538 42.9254C62.538 42.1164 61.882 41.4606 61.0731 41.4606Z" fill="#31ABF0" fill-opacity="0.89"/>
<path d="M31.1058 41.4248H29.7488C28.9399 41.4248 28.2839 42.0806 28.2839 42.8896C28.2839 43.6987 28.9399 44.3545 29.7488 44.3545H31.1058C31.9147 44.3545 32.5706 43.6987 32.5706 42.8896C32.5706 42.0806 31.9147 41.4248 31.1058 41.4248Z" fill="#31ABF0" fill-opacity="0.89"/>
<path d="M45.4289 30.0672C46.2378 30.0672 46.8937 29.4114 46.8937 28.6023V27.2453C46.8937 26.4363 46.2378 25.7805 45.4289 25.7805C44.62 25.7805 43.964 26.4363 43.964 27.2453V28.6023C43.964 29.4114 44.62 30.0672 45.4289 30.0672Z" fill="#31ABF0" fill-opacity="0.89"/>
<path d="M45.3932 55.7479C44.5843 55.7479 43.9283 56.4037 43.9283 57.2127V58.5697C43.9283 59.3788 44.5843 60.0346 45.3932 60.0346C46.202 60.0346 46.858 59.3788 46.858 58.5697V57.2127C46.858 56.4037 46.202 55.7479 45.3932 55.7479Z" fill="#31ABF0" fill-opacity="0.89"/>
<path d="M1.46484 50.4812C1.07959 50.4812 0.70166 50.6379 0.429199 50.9104C0.156738 51.1829 0 51.5608 0 51.946C0 52.3328 0.156592 52.7092 0.429199 52.9817C0.701807 53.2542 1.07959 53.4109 1.46484 53.4109C1.8501 53.4109 2.22803 53.2542 2.50034 52.9817C2.7728 52.7092 2.92969 52.3313 2.92969 51.946C2.92969 51.5608 2.77295 51.1829 2.50034 50.9104C2.22803 50.6379 1.8501 50.4812 1.46484 50.4812Z" fill="#31ABF0" fill-opacity="0.89"/>
</svg>
