<svg width="75" height="75" viewBox="0 0 75 75" fill="none" xmlns="http://www.w3.org/2000/svg">
<g clip-path="url(#clip0)">
<path d="M73.792 41.0707C69.1306 41.0707 65.3362 37.2764 65.3362 32.615V31.407H53.2566V0H12.8937L0.106232 12.7874V70.0618H48.8441C51.0713 71.9835 53.6046 73.5961 56.4045 74.7958L56.8805 74.9999L57.3565 74.7958C68.0748 70.2034 74.9999 59.6998 74.9999 48.0395V41.0707H73.792ZM4.23029 12.0796L12.1859 4.12406V12.0796H4.23029ZM7.35401 14.4956H14.6018V7.24778H46.0088V19.3274H7.35401V14.4956ZM2.52216 14.4956H4.93808V21.7433H48.4247V4.83185H14.6018V2.41593H50.8407V31.407H48.4247V32.615C48.4247 37.2764 44.6304 41.0707 39.969 41.0707H38.761V48.0395C38.761 55.4524 41.5686 62.39 46.3604 67.6459H2.52216V14.4956ZM72.584 48.0395C72.584 58.5597 66.438 68.0505 56.8805 72.3669C47.323 68.0517 41.177 58.5597 41.177 48.0395V43.42C46.2082 42.862 50.2149 38.8554 50.7728 33.8241H62.9869C63.5449 38.8554 67.5516 42.862 72.5828 43.42V48.0395H72.584Z" fill="#F08D31"/>
<path d="M62.081 48.913L65.2383 41.5455L63.0182 40.5947L59.9717 47.7039C59.0127 47.3258 57.9728 47.1105 56.8805 47.1105C52.2191 47.1105 48.4247 50.9049 48.4247 55.5663C48.4247 60.2277 52.2191 64.022 56.8805 64.022C61.5419 64.022 65.3362 60.2277 65.3362 55.5663C65.3362 52.8655 64.0581 50.4625 62.081 48.913ZM56.8805 61.6061C53.5503 61.6061 50.8407 58.8964 50.8407 55.5663C50.8407 52.2361 53.5503 49.5265 56.8805 49.5265C57.6343 49.5265 58.3491 49.6822 59.015 49.9358L56.342 56.1714L53.926 54.5612L52.586 56.5713L57.4178 59.793L61.0818 51.2429C62.2125 52.3411 62.9203 53.8705 62.9203 55.5663C62.9203 58.8964 60.2106 61.6061 56.8805 61.6061Z" fill="#F08D31"/>
<path d="M4.93808 65.2301H36.3451V43.4868H4.93808V65.2301ZM7.35401 45.9027H33.9292V62.8142H7.35401V45.9027Z" fill="#F08D31"/>
<path d="M9.76996 24.1592H36.3451V26.5751H9.76996V24.1592Z" fill="#F08D31"/>
<path d="M4.93808 24.1592H7.354V26.5751H4.93808V24.1592Z" fill="#F08D31"/>
<path d="M4.93808 28.9912H36.3451V31.4071H4.93808V28.9912Z" fill="#F08D31"/>
<path d="M4.93808 33.8228H36.3451V36.2387H4.93808V33.8228Z" fill="#F08D31"/>
<path d="M4.93808 38.6548H36.3451V41.0707H4.93808V38.6548Z" fill="#F08D31"/>
</g>
<defs>
<clipPath id="clip0">
<rect width="75" height="75" fill="white"/>
</clipPath>
</defs>
</svg>
