<svg width="42" height="42" viewBox="0 0 42 42" fill="none" xmlns="http://www.w3.org/2000/svg">
<path d="M36.0938 4.59375H5.90625C5.18027 4.59375 4.59375 5.18027 4.59375 5.90625V36.0938C4.59375 36.8197 5.18027 37.4062 5.90625 37.4062H36.0938C36.8197 37.4062 37.4062 36.8197 37.4062 36.0938V5.90625C37.4062 5.18027 36.8197 4.59375 36.0938 4.59375ZM34.7812 34.7812H27.2303V24.6996H31.4959L32.1357 19.749H27.2303V16.5867C27.2303 15.1512 27.6281 14.175 29.683 14.175H32.3039V9.74531C31.8486 9.68379 30.2941 9.54844 28.4813 9.54844C24.6996 9.54844 22.1115 11.8576 22.1115 16.0945V19.7449H17.8377V24.6955H22.1156V34.7812H7.21875V7.21875H34.7812V34.7812Z" fill="#272727"/>
</svg>
