<svg width="75" height="75" viewBox="0 0 75 75" fill="none" xmlns="http://www.w3.org/2000/svg">
<g clip-path="url(#clip0)">
<path d="M60.8427 19.1093C60.6495 18.7788 60.2674 18.5659 59.8956 18.5659C59.8869 18.5659 9.6628 18.5659 9.6628 18.5659C9.65928 18.5659 9.65606 18.5665 9.65254 18.5667C9.28141 18.5705 8.91424 18.7798 8.72275 19.0982C8.72172 19.1 8.72025 19.1016 8.71923 19.1033L5.76545 24.0829C5.4563 24.6039 5.62816 25.2768 6.14917 25.5858C6.67063 25.895 7.34329 25.7231 7.65229 25.2021L9.82924 21.5324L19.9511 33.2359H3.00008L5.15154 29.5551C5.45732 29.0321 5.28106 28.3601 4.758 28.0545C4.23522 27.7487 3.56315 27.925 3.25737 28.4479C3.21546 28.5197 1.82516 30.8981 1.17199 32.0156C0.882474 32.511 0.592956 33.0063 0.303438 33.5016C0.0189023 33.9883 -0.175965 34.5131 0.237213 35.0226C0.243073 35.0297 0.247469 35.0377 0.253476 35.0447C0.253476 35.0447 33.903 74.5092 33.9443 74.5575C34.3623 75.0478 35.1909 75.0535 35.6137 74.5575L50.1847 57.4685L50.6543 56.9352C51.0547 56.4804 51.0108 55.7872 50.556 55.387C50.1013 54.9867 49.4083 55.0308 49.0079 55.4853L48.5327 56.0249C48.5289 56.0293 48.525 56.0337 48.5213 56.0382L37.4439 69.0299L48.0129 35.4299H66.0931L52.2609 51.6524C51.8678 52.1135 51.9228 52.8058 52.3838 53.1989C52.8447 53.5918 53.537 53.5367 53.9303 53.0759L69.3046 35.0448C69.309 35.0397 69.3122 35.0338 69.3165 35.0286C69.4414 34.876 69.5211 34.7051 69.5546 34.5279C69.6013 34.2793 69.5566 34.0185 69.417 33.7795C69.4129 33.772 60.8427 19.1093 60.8427 19.1093ZM12.0619 20.7599H32.4121L22.3418 32.6461L12.0619 20.7599ZM34.7792 21.3599L44.8409 33.2358H24.7176L34.7792 21.3599ZM3.46513 35.4299H21.5453L32.1143 69.0299L3.46513 35.4299ZM34.7792 70.19L23.8452 35.4299H45.7132L34.7792 70.19ZM47.2167 32.6461L37.1463 20.7599H57.4965L47.2167 32.6461ZM49.6073 33.2358L59.7222 21.5401L66.5583 33.2358H49.6073Z" fill="#31ABF0" fill-opacity="0.89"/>
<path d="M50.8852 9.3791C52.832 10.8063 53.9775 12.8014 54.5956 14.2241C54.9163 14.962 55.6438 15.4389 56.4492 15.4389C57.2546 15.4389 57.9822 14.962 58.3029 14.2241C58.9211 12.8016 60.0664 10.8063 62.0133 9.3791C62.5267 9.0027 62.8331 8.39582 62.8331 7.75584C62.8331 7.1157 62.5267 6.50883 62.0133 6.13243C60.0666 4.70521 58.9211 2.70994 58.3028 1.2874C57.9821 0.549545 57.2546 0.0726318 56.4492 0.0726318C55.6438 0.0726318 54.9162 0.549545 54.5956 1.2874C53.9775 2.70979 52.832 4.70521 50.8851 6.13243C50.3717 6.50883 50.0653 7.1157 50.0653 7.75584C50.0655 8.39582 50.3718 9.0027 50.8852 9.3791ZM56.4493 2.51478C57.1849 4.10287 58.4553 6.17331 60.5213 7.75554C58.4552 9.33793 57.1847 11.4084 56.4493 12.9963C55.7138 11.4082 54.4432 9.33778 52.3773 7.75554C54.4434 6.17316 55.7137 4.10302 56.4493 2.51478Z" fill="#31ABF0" fill-opacity="0.89"/>
<path d="M74.2412 15.2912C72.6466 14.1223 71.7064 12.4838 71.1988 11.3151C70.9022 10.6327 70.2293 10.1917 69.4844 10.1917C69.4844 10.1917 69.4844 10.1917 69.4842 10.1917C68.7395 10.1917 68.0665 10.6327 67.7698 11.3151C67.262 12.4838 66.3221 14.1223 64.7273 15.2913C64.2523 15.6397 63.9688 16.2012 63.9688 16.7933C63.9688 17.3853 64.2524 17.9468 64.7276 18.2952C66.3221 19.4641 67.2622 21.1026 67.77 22.2711C68.0667 22.9537 68.7396 23.3947 69.4845 23.3946C70.2293 23.3946 70.9022 22.9536 71.1988 22.2711C71.7067 21.1026 72.6468 19.4641 74.2413 18.2951C74.7163 17.9466 75 17.3852 75 16.7933C75 16.2012 74.7163 15.6396 74.2412 15.2912ZM69.4842 20.7571C68.8664 19.5139 67.88 18.0042 66.3726 16.7931C67.8802 15.582 68.8664 14.0723 69.4842 12.8291C70.1022 14.0724 71.0884 15.582 72.596 16.7933C71.0883 18.0044 70.1022 19.5139 69.4842 20.7571Z" fill="#31ABF0" fill-opacity="0.89"/>
</g>
<defs>
<clipPath id="clip0">
<rect width="75" height="75" fill="white"/>
</clipPath>
</defs>
</svg>
