<svg width="42" height="42" viewBox="0 0 42 42" fill="none" xmlns="http://www.w3.org/2000/svg">
<path d="M21 12.5874C16.3447 12.5874 12.5877 16.3444 12.5877 20.9997C12.5877 25.6549 16.3447 29.412 21 29.412C25.6553 29.412 29.4123 25.6549 29.4123 20.9997C29.4123 16.3444 25.6553 12.5874 21 12.5874ZM21 26.467C17.9895 26.467 15.5326 24.0102 15.5326 20.9997C15.5326 17.9891 17.9895 15.5323 21 15.5323C24.0106 15.5323 26.4674 17.9891 26.4674 20.9997C26.4674 24.0102 24.0106 26.467 21 26.467ZM29.7568 10.2823C28.6699 10.2823 27.7922 11.16 27.7922 12.2469C27.7922 13.3338 28.6699 14.2116 29.7568 14.2116C30.8438 14.2116 31.7215 13.3379 31.7215 12.2469C31.7218 11.9888 31.6712 11.7332 31.5726 11.4947C31.474 11.2562 31.3293 11.0395 31.1468 10.857C30.9643 10.6745 30.7476 10.5298 30.5091 10.4312C30.2706 10.3325 30.0149 10.282 29.7568 10.2823ZM37.3981 20.9997C37.3981 18.7356 37.4186 16.492 37.2914 14.2321C37.1643 11.6071 36.5654 9.27739 34.6459 7.35786C32.7223 5.43423 30.3967 4.8395 27.7717 4.71235C25.5076 4.5852 23.2641 4.60571 21.0041 4.60571C18.74 4.60571 16.4965 4.5852 14.2365 4.71235C11.6115 4.8395 9.28185 5.43833 7.36232 7.35786C5.43868 9.28149 4.84396 11.6071 4.71681 14.2321C4.58966 16.4961 4.61017 18.7397 4.61017 20.9997C4.61017 23.2596 4.58966 25.5073 4.71681 27.7672C4.84396 30.3922 5.44279 32.7219 7.36232 34.6415C9.28595 36.5651 11.6115 37.1598 14.2365 37.287C16.5006 37.4141 18.7442 37.3936 21.0041 37.3936C23.2682 37.3936 25.5117 37.4141 27.7717 37.287C30.3967 37.1598 32.7264 36.561 34.6459 34.6415C36.5695 32.7178 37.1643 30.3922 37.2914 27.7672C37.4227 25.5073 37.3981 23.2637 37.3981 20.9997ZM33.7887 30.6711C33.4893 31.4176 33.1283 31.9754 32.55 32.5497C31.9717 33.128 31.418 33.4889 30.6715 33.7883C28.5141 34.6456 23.3912 34.4528 21 34.4528C18.6088 34.4528 13.4818 34.6456 11.3244 33.7924C10.5779 33.493 10.0201 33.1321 9.44591 32.5538C8.86759 31.9754 8.50665 31.4217 8.20724 30.6752C7.35411 28.5137 7.54689 23.3909 7.54689 20.9997C7.54689 18.6084 7.35411 13.4815 8.20724 11.3241C8.50665 10.5776 8.86759 10.0198 9.44591 9.44556C10.0242 8.87134 10.5779 8.5063 11.3244 8.20688C13.4818 7.35376 18.6088 7.54653 21 7.54653C23.3912 7.54653 28.5182 7.35376 30.6756 8.20688C31.4221 8.5063 31.9799 8.86724 32.5541 9.44556C33.1324 10.0239 33.4934 10.5776 33.7928 11.3241C34.6459 13.4815 34.4531 18.6084 34.4531 20.9997C34.4531 23.3909 34.6459 28.5137 33.7887 30.6711Z" fill="#272727"/>
</svg>
