<svg width="75" height="75" viewBox="0 0 75 75" fill="none" xmlns="http://www.w3.org/2000/svg">
<path d="M8.72836 8.74558V73.7129C8.72836 74.403 9.28776 74.9624 9.97787 74.9624H57.4541C58.1437 74.9624 58.7031 74.403 58.7031 73.7129V21.2396C58.7031 21.2119 58.6897 21.1882 58.6871 21.1609C58.6809 21.0513 58.6593 20.9432 58.6233 20.8398C58.6094 20.7996 58.5996 20.761 58.5821 20.7219C58.5214 20.5861 58.437 20.462 58.332 20.356L45.8385 7.86248C45.7325 7.75698 45.6079 7.67258 45.471 7.61237C45.4335 7.59642 45.3954 7.58304 45.3563 7.5712C45.2518 7.53518 45.1432 7.51356 45.0326 7.50636C45.0115 7.50996 44.9868 7.49658 44.9605 7.49658H9.97787C9.28776 7.49658 8.72836 8.05546 8.72836 8.74558ZM54.4379 19.9901H46.2095V11.7618L54.4379 19.9901ZM11.2269 9.99509H43.711V21.2396C43.711 21.9292 44.2704 22.4886 44.96 22.4886H56.2046V72.4639H11.2269V9.99509Z" fill="#F08D31"/>
<path d="M61.2021 64.9673V67.4658H64.9501C65.6402 67.4658 66.1996 66.9069 66.1996 66.2168V1.24951C66.1996 0.559397 65.6402 0 64.9501 0H17.4739C16.7838 0 16.2244 0.559397 16.2244 1.24951V4.99752H18.7234V2.4985H63.7006V64.9673H61.2021Z" fill="#F08D31"/>
<path d="M18.7234 24.9873H48.708V27.4858H18.7234V24.9873Z" fill="#F08D31"/>
<path d="M18.7234 17.4912H28.7185V19.9902H18.7234V17.4912Z" fill="#F08D31"/>
<path d="M18.7234 32.4839H38.7135V34.9829H18.7234V32.4839Z" fill="#F08D31"/>
<path d="M41.212 32.4839H48.708V34.9829H41.212V32.4839Z" fill="#F08D31"/>
<path d="M18.7234 39.9795H48.708V42.4785H18.7234V39.9795Z" fill="#F08D31"/>
<path d="M18.7234 54.9722H48.708V57.4712H18.7234V54.9722Z" fill="#F08D31"/>
<path d="M29.9674 47.4761H48.708V49.9746H29.9674V47.4761Z" fill="#F08D31"/>
<path d="M18.7234 47.4761H27.4689V49.9746H18.7234V47.4761Z" fill="#F08D31"/>
<path d="M18.7234 62.4688H23.7209V64.9672H18.7234V62.4688Z" fill="#F08D31"/>
<path d="M26.2194 62.4688H48.708V64.9672H26.2194V62.4688Z" fill="#F08D31"/>
</svg>
