<svg width="75" height="75" viewBox="0 0 75 75" fill="none" xmlns="http://www.w3.org/2000/svg">
<path d="M37.5 75C58.1776 75 75 58.1776 75 37.5C75 16.8224 58.1776 0 37.5 0C16.8224 0 0 16.8224 0 37.5C0 58.1776 16.8224 75 37.5 75ZM37.5 3.34395C56.334 3.34395 71.6561 18.666 71.6561 37.5C71.6561 56.334 56.334 71.6561 37.5 71.6561C18.666 71.6561 3.34395 56.334 3.34395 37.5C3.34395 18.666 18.666 3.34395 37.5 3.34395Z" fill="#31ABF0" fill-opacity="0.89"/>
<path d="M28.2566 34.1299C32.081 34.1299 35.1805 31.0295 35.1805 27.206C35.1815 23.3815 32.081 20.2811 28.2566 20.2811C24.4321 20.2811 21.3326 23.3815 21.3326 27.205C21.3363 31.0276 24.434 34.1252 28.2566 34.1299ZM28.2566 23.625C30.2336 23.625 31.8366 25.2279 31.8366 27.205C31.8375 29.183 30.2346 30.786 28.2566 30.786C26.2795 30.786 24.6766 29.183 24.6766 27.205C24.6784 25.2289 26.2804 23.6278 28.2566 23.625Z" fill="#31ABF0" fill-opacity="0.89"/>
<path d="M39.3997 48.2149C39.3997 52.0393 42.5001 55.1388 46.3236 55.1388C50.148 55.1388 53.2485 52.0393 53.2485 48.2149C53.2485 44.3904 50.148 41.29 46.3236 41.29C42.501 41.2946 39.4043 44.3923 39.3997 48.2149ZM49.9045 48.2149C49.9045 50.1919 48.3016 51.7949 46.3236 51.7949C44.3465 51.7949 42.7436 50.1919 42.7436 48.2149C42.7436 46.2378 44.3465 44.6349 46.3236 44.6339C48.3007 44.6367 49.9017 46.2378 49.9045 48.2149Z" fill="#31ABF0" fill-opacity="0.89"/>
<path d="M24.7689 57.0206C25.5424 57.5254 26.579 57.3071 27.0828 56.5336L50.7181 20.2932C51.0456 19.7921 51.0811 19.1549 50.8114 18.6212C50.5408 18.0875 50.0062 17.7386 49.4091 17.7068C48.8119 17.6751 48.2428 17.9643 47.9172 18.4663L24.2819 54.7067C23.7771 55.4811 23.9955 56.5168 24.7689 57.0206Z" fill="#31ABF0" fill-opacity="0.89"/>
</svg>
