<svg width="75" height="75" viewBox="0 0 75 75" fill="none" xmlns="http://www.w3.org/2000/svg">
<path d="M70.2113 29.9885V10.0614H60.6334V5.28927C60.6334 2.37276 58.2603 0 55.3438 0H10.0783C7.16163 0 4.78873 2.37276 4.78873 5.28927V19.2891C4.78873 22.2058 7.16149 24.5785 10.0781 24.5785H55.3437C58.2603 24.5785 60.6331 22.2056 60.6331 19.2891V14.5171H65.7553V26.2977L30.483 32.981V40.7674H26.473V75H38.9488V40.7674H34.9388V36.6717L70.2113 29.9885ZM55.3438 20.1229H10.0783C9.61862 20.1229 9.2445 19.7488 9.2445 19.2891V5.28927C9.2445 4.8296 9.61862 4.45562 10.0783 4.45562H55.3438C55.8036 4.45562 56.1776 4.82975 56.1776 5.28927V19.2891H56.1777C56.1776 19.7489 55.8035 20.1229 55.3438 20.1229ZM34.4933 70.5445H30.9288V45.2232H34.4933V70.5445Z" fill="#F08D31"/>
</svg>
