<svg width="75" height="75" viewBox="0 0 75 75" fill="none" xmlns="http://www.w3.org/2000/svg">
<g clip-path="url(#clip0)">
<path d="M70.8366 34.1589L63.625 32.4733C63.123 30.844 62.4684 29.2641 61.6711 27.7577L65.579 21.466C65.938 20.8878 65.8516 20.1384 65.3704 19.6572L58.3749 12.6614C57.8935 12.1801 57.1443 12.0939 56.5661 12.4528L50.7026 16.0947V1.46485C50.7026 0.655812 50.0466 0 49.2378 0H37.8661C37.0571 0 36.4013 0.655812 36.4013 1.46485V5.22965L32.9941 0.596925C32.719 0.222803 32.2827 0.00131836 31.8182 0H31.8141C31.3512 0 30.9155 0.218702 30.6392 0.590187L25.505 7.48727C24.8188 7.60885 24.2974 8.20841 24.2974 8.92956V16.0947L18.4339 12.4528C17.8559 12.0939 17.1065 12.1803 16.6251 12.6614L9.62962 19.6572C9.14842 20.1384 9.06199 20.8877 9.42103 21.466L13.3289 27.7577C12.5316 29.2641 11.877 30.844 11.375 32.4733L4.1634 34.1589C3.5007 34.3139 3.03195 34.9047 3.03195 35.5852V45.4787C3.03195 46.1592 3.5007 46.7503 4.16355 46.905L11.3751 48.5904C11.8771 50.2198 12.5318 51.7999 13.3289 53.3061L9.42103 59.5979C9.06199 60.176 9.14842 60.9255 9.62962 61.4067L16.6251 68.4023C17.1065 68.8837 17.8558 68.9698 18.4339 68.6109L24.7257 64.703C26.2319 65.5 27.812 66.1548 29.4415 66.6568L31.127 73.8684C31.2818 74.5311 31.8727 75 32.5533 75H42.4467C43.1273 75 43.7184 74.5312 43.873 73.8684L45.5585 66.6568C47.188 66.1548 48.7681 65.5002 50.2743 64.703L56.5661 68.6109C57.1443 68.97 57.8937 68.8834 58.3749 68.4023L65.3704 61.4067C65.8516 60.9255 65.938 60.1762 65.579 59.5979L61.6711 53.3061C62.4684 51.7995 63.123 50.2198 63.625 48.5904L70.8365 46.905C71.4993 46.7501 71.9681 46.1592 71.9681 45.4787V35.5852C71.9681 34.9047 71.4993 34.3139 70.8366 34.1589ZM50.7026 35.7319C51.2575 37.2584 51.5478 38.8819 51.5478 40.5323C51.5478 42.183 51.2573 43.8067 50.7026 45.3329V35.7319ZM47.7729 2.92969V6.32521H44.5942C43.7853 6.32521 43.1293 6.98117 43.1293 7.79005C43.1293 8.59894 43.7853 9.2549 44.5942 9.2549H47.7729V13.9159H46.059C45.2501 13.9159 44.5942 14.5719 44.5942 15.3807C44.5942 16.1896 45.2501 16.8456 46.059 16.8456H47.7729V21.5066H44.5942C43.7853 21.5066 43.1293 22.1624 43.1293 22.9714C43.1293 23.7803 43.7853 24.4363 44.5942 24.4363H47.7729V29.0973H46.059C45.2501 29.0973 44.5942 29.7532 44.5942 30.5621C44.5942 31.3712 45.2501 32.027 46.059 32.027H47.7729V36.688H44.5942C43.7853 36.688 43.1293 37.3439 43.1293 38.1528C43.1293 38.9617 43.7853 39.6177 44.5942 39.6177H47.7729V44.2786H46.059C45.2501 44.2786 44.5942 44.9346 44.5942 45.7435C44.5942 46.5524 45.2501 47.2083 46.059 47.2083H47.7729V50.1124C47.7539 50.1328 47.7348 50.153 47.7158 50.1732C47.7101 50.1793 47.7042 50.1854 47.6983 50.1915C47.6852 50.2054 47.6718 50.2195 47.6586 50.2332C47.6521 50.2401 47.6453 50.247 47.6387 50.2541C47.6255 50.2678 47.6124 50.2816 47.599 50.2952C47.5927 50.3017 47.5864 50.3081 47.5803 50.3147C47.5669 50.3285 47.5536 50.3421 47.5403 50.3557C47.534 50.3623 47.5275 50.3688 47.5212 50.3752C47.5069 50.3898 47.4924 50.4045 47.4779 50.4191C47.4731 50.4241 47.4682 50.429 47.4632 50.4339C47.403 50.4946 47.3422 50.5545 47.281 50.614C47.2785 50.6163 47.276 50.6188 47.2735 50.6211C47.2558 50.6384 47.2379 50.6556 47.2201 50.6727C47.2166 50.6761 47.2129 50.6794 47.2094 50.683C47.1918 50.6998 47.1742 50.7165 47.1566 50.7331C47.1537 50.7358 47.1508 50.7386 47.1479 50.7414C47.1297 50.7585 47.1117 50.7755 47.0935 50.7925C47.0907 50.7952 47.0878 50.7978 47.085 50.8004C47.0655 50.8186 47.0459 50.8368 47.0263 50.8549C47.0251 50.856 47.0239 50.8571 47.0228 50.8582C46.9587 50.9172 46.8943 50.9755 46.8293 51.0332C46.8282 51.0341 46.8272 51.035 46.8262 51.0358C46.8058 51.0539 46.7855 51.0719 46.7649 51.0897C46.763 51.0914 46.7611 51.0931 46.7592 51.0947C46.739 51.1125 46.7188 51.13 46.6984 51.1476L46.6946 51.151C44.6195 52.946 42.0547 54.1012 39.331 54.4604V2.92969H47.7729ZM31.807 3.92769L34.4085 7.46486H29.174L31.807 3.92769ZM27.2273 10.3951H36.4016V54.5373C36.3741 54.5351 36.3465 54.5329 36.3191 54.5305C36.3105 54.5298 36.302 54.5291 36.2936 54.5283C36.2731 54.5266 36.2528 54.5248 36.2323 54.5229C36.2214 54.5219 36.2104 54.5209 36.1996 54.5198C36.1813 54.5181 36.1631 54.5165 36.145 54.5147C36.1341 54.5137 36.1231 54.5125 36.1123 54.5115C36.0944 54.5097 36.0764 54.508 36.0585 54.5061C36.0471 54.5049 36.0357 54.5037 36.0244 54.5024C36.0067 54.5005 35.9889 54.4987 35.9712 54.4967C35.9601 54.4955 35.9491 54.4942 35.938 54.493C35.9202 54.491 35.9025 54.4891 35.8848 54.487C35.8734 54.4857 35.8618 54.4844 35.8504 54.4831C35.8332 54.481 35.816 54.479 35.7988 54.4769C35.7872 54.4754 35.7757 54.4741 35.7641 54.4727C35.7458 54.4703 35.7276 54.4681 35.7093 54.4658C35.6992 54.4645 35.6891 54.4631 35.6791 54.4618C35.6582 54.459 35.6372 54.4563 35.6163 54.4535C35.6087 54.4524 35.6011 54.4514 35.5934 54.4504C35.5351 54.4425 35.477 54.4341 35.4188 54.4254C35.4178 54.4252 35.4168 54.4251 35.4158 54.4249C35.3884 54.4208 35.3611 54.4167 35.3337 54.4123C35.3267 54.4113 35.3198 54.4101 35.3128 54.4089C35.2911 54.4056 35.2694 54.4021 35.2477 54.3985C35.2392 54.3971 35.2307 54.3958 35.2222 54.3943C35.2022 54.3909 35.182 54.3877 35.1619 54.3843C35.1531 54.3829 35.1443 54.3813 35.1355 54.3798C35.1158 54.3764 35.096 54.3731 35.0764 54.3695C35.067 54.3679 35.0575 54.3662 35.0481 54.3646C35.0282 54.361 35.0082 54.3575 34.9885 54.3539C34.9804 54.3524 34.9723 54.3509 34.9643 54.3495C34.9428 54.3455 34.9211 54.3414 34.8995 54.3375C34.8927 54.3361 34.8858 54.3348 34.8789 54.3335C34.8544 54.3288 34.83 54.3241 34.8056 54.3194C34.802 54.3187 34.7983 54.318 34.7947 54.3172C34.7674 54.3118 34.74 54.3064 34.7128 54.301C34.7113 54.3007 34.7098 54.3004 34.7082 54.3001C34.6498 54.2882 34.5913 54.2761 34.5332 54.2635C34.5325 54.2633 34.5319 54.2632 34.5311 54.263C34.5037 54.257 34.4762 54.251 34.4488 54.245C34.4438 54.2439 34.4388 54.2428 34.4339 54.2417C34.4104 54.2364 34.3871 54.2311 34.3637 54.2258C34.3575 54.2244 34.3514 54.2231 34.3452 54.2216C34.3228 54.2165 34.3006 54.2112 34.2782 54.2059C34.2719 54.2045 34.2654 54.203 34.2591 54.2014C34.2368 54.1961 34.2146 54.1908 34.1923 54.1854C34.186 54.1839 34.1799 54.1823 34.1736 54.1809C34.1506 54.1753 34.1276 54.1696 34.1046 54.1639C34.0997 54.1627 34.0948 54.1614 34.0898 54.1602C34.0641 54.1538 34.0384 54.1473 34.0127 54.1407C34.0107 54.1403 34.0086 54.1397 34.0066 54.1391C33.9789 54.1321 33.9512 54.1248 33.9235 54.1176C33.9226 54.1173 33.9218 54.1171 33.9209 54.1169C33.8056 54.0865 33.6909 54.0547 33.5766 54.0215C33.5758 54.0212 33.5747 54.0209 33.5739 54.0206C33.5471 54.0128 33.5201 54.0049 33.4933 53.9969C33.4904 53.996 33.4873 53.9951 33.4844 53.9942C33.4596 53.9869 33.435 53.9795 33.4102 53.972C33.4058 53.9707 33.4014 53.9693 33.3971 53.968C33.3723 53.9604 33.3475 53.9528 33.3229 53.9452C33.3204 53.9444 33.3181 53.9437 33.3156 53.9428C33.3034 53.939 33.2913 53.9352 33.2791 53.9314V18.9806C33.2791 18.1717 32.6232 17.5158 31.8143 17.5158C31.0052 17.5158 30.3494 18.1717 30.3494 18.9806V52.6239C29.2045 51.9465 28.1516 51.1038 27.2273 50.1125V10.3951ZM62.1242 45.9328C61.6005 46.0551 61.1859 46.4547 61.0443 46.9734C60.5056 48.9473 59.7179 50.8483 58.703 52.624C58.4361 53.091 58.4465 53.6669 58.7304 54.1239L62.4773 60.1567L57.1251 65.5091L51.0923 61.7622C50.6349 61.4783 50.0594 61.4679 49.5924 61.7348C47.8173 62.7495 45.9159 63.5373 43.9416 64.076C43.4228 64.2177 43.0231 64.6323 42.901 65.1559L41.2847 72.0704H33.7152L32.0992 65.1562C31.9769 64.6325 31.5773 64.218 31.0584 64.0763C29.084 63.5374 27.1827 62.7496 25.4076 61.7351C24.9406 61.4682 24.3648 61.4786 23.9078 61.7625L17.8749 65.5094L12.5227 60.1569L16.2696 54.124C16.5535 53.667 16.5639 53.0912 16.297 52.6242C15.2822 50.8489 14.4945 48.9477 13.9558 46.9735C13.8141 46.4547 13.3996 46.0551 12.8759 45.9329L5.96165 44.3169V36.7474L12.8759 35.1311C13.3994 35.0088 13.814 34.6092 13.9556 34.0905C14.4942 32.1166 15.282 30.2154 16.2969 28.4398C16.5638 27.9729 16.5534 27.397 16.2695 26.94L12.5225 20.9073L17.8748 15.5548L23.9076 19.3018C24.0304 19.378 24.1616 19.4346 24.2971 19.4712V22.2008C18.4017 26.4559 14.9015 33.2602 14.9015 40.532C14.9015 52.9927 25.0389 63.1303 37.4998 63.1303C42.3788 63.1303 47.0275 61.5939 50.9434 58.6867C54.7809 55.8382 57.5757 51.941 59.0257 47.4165C59.2727 46.6461 58.8483 45.8214 58.0778 45.5746C57.3073 45.3278 56.4827 45.7521 56.2359 46.5225C53.6138 54.704 46.0842 60.2008 37.4998 60.2008C26.6545 60.2008 17.8312 51.3776 17.8312 40.5322C17.8312 34.9445 20.2073 29.6733 24.2971 25.9653V29.8584C21.859 32.8723 20.5224 36.6408 20.5224 40.5323C20.5224 44.6041 21.9853 48.5402 24.6421 51.6174C24.6461 51.6221 24.6499 51.6268 24.6538 51.6313C27.8825 55.3672 32.5647 57.5099 37.4999 57.5099C37.6346 57.5099 37.7676 57.5083 37.9006 57.5052C37.901 57.5052 37.9013 57.5052 37.9017 57.5052C42.6808 57.3937 47.2164 55.2528 50.3461 51.6313C50.3478 51.6292 50.3496 51.6271 50.3515 51.625C53.0124 48.5465 54.4775 44.6075 54.4775 40.5323C54.4775 36.6408 53.1408 32.8723 50.7026 29.8583V19.4712C50.8381 19.4346 50.9693 19.3779 51.0921 19.3018L57.1249 15.5548L62.4772 20.9073L58.7303 26.94C58.4464 27.397 58.436 27.9729 58.7029 28.4398C59.7178 30.2154 60.5056 32.1168 61.0441 34.0905C61.1858 34.6093 61.6003 35.009 62.1239 35.1311L69.0382 36.7473V44.3167H69.0384L62.1242 45.9328ZM24.2973 35.7319V45.3329C23.7425 43.8067 23.4519 42.183 23.4519 40.5323C23.4519 38.8817 23.7422 37.2582 24.2973 35.7319Z" fill="#F08D31"/>
<path d="M60.0644 40.7316C60.0454 40.6378 60.0176 40.5455 59.9809 40.4576C59.9443 40.3684 59.8989 40.2833 59.8462 40.2042C59.792 40.1236 59.7304 40.0488 59.6631 39.9815C59.5957 39.9142 59.521 39.8526 59.4404 39.8C59.3613 39.7473 59.2763 39.7019 59.1883 39.6653C59.0991 39.6287 59.0067 39.6008 58.9144 39.5818C58.7254 39.5437 58.5306 39.5437 58.3418 39.5818C58.2479 39.6008 58.1556 39.6287 58.0678 39.6653C57.9785 39.7019 57.8935 39.7473 57.8144 39.8C57.7339 39.8526 57.6591 39.9142 57.5918 39.9815C57.5244 40.0489 57.4629 40.1238 57.4101 40.2042C57.3574 40.2833 57.312 40.3683 57.2754 40.4576C57.2387 40.5455 57.2109 40.6378 57.1919 40.7316C57.1728 40.8255 57.1626 40.922 57.1626 41.0172C57.1626 41.1124 57.1728 41.2091 57.1919 41.3043C57.2109 41.3966 57.2387 41.4889 57.2754 41.5782C57.312 41.6661 57.3574 41.7511 57.4101 41.8302C57.4629 41.9108 57.5244 41.9855 57.5918 42.053C57.6591 42.1204 57.7339 42.1819 57.8144 42.2361C57.8935 42.2887 57.9785 42.3343 58.0678 42.3709C58.1557 42.406 58.2479 42.4353 58.3418 42.4529C58.4355 42.472 58.5322 42.4822 58.6273 42.4822C58.7225 42.4822 58.8193 42.472 58.9144 42.4529C59.0067 42.4353 59.0991 42.4062 59.1883 42.3709C59.2763 42.3343 59.3613 42.2888 59.4404 42.2361C59.521 42.1819 59.5957 42.1204 59.6631 42.053C59.7304 41.9856 59.792 41.9108 59.8462 41.8302C59.8989 41.7511 59.9443 41.6661 59.9809 41.5782C60.0176 41.4889 60.0454 41.3966 60.0644 41.3043C60.0835 41.2091 60.0921 41.1124 60.0921 41.0172C60.0921 40.922 60.0833 40.8253 60.0644 40.7316Z" fill="#F08D31"/>
<path d="M33.2504 13.0383C33.2312 12.9445 33.2035 12.8523 33.1669 12.7644C33.1303 12.6752 33.0847 12.5902 33.0321 12.5111C32.9779 12.4304 32.9179 12.3557 32.849 12.2883C32.7817 12.2209 32.7069 12.1594 32.6264 12.1067C32.5473 12.0541 32.4623 12.0085 32.3744 11.9719C32.2865 11.9353 32.1944 11.9076 32.1005 11.8885C31.9115 11.8503 31.7167 11.8503 31.5277 11.8885C31.434 11.9076 31.3417 11.9353 31.2538 11.9719C31.1659 12.0085 31.081 12.0541 31.0004 12.1067C30.9213 12.1594 30.845 12.2209 30.7777 12.2883C30.7104 12.3557 30.6488 12.4304 30.5963 12.5111C30.5435 12.5902 30.4981 12.6766 30.4615 12.7644C30.4249 12.8524 30.397 12.9445 30.378 13.0383C30.3589 13.132 30.3502 13.2287 30.3502 13.3239C30.3502 13.419 30.3591 13.5158 30.378 13.6111C30.397 13.7048 30.4249 13.7971 30.4615 13.885C30.4981 13.9729 30.5435 14.0578 30.5963 14.1382C30.6488 14.2174 30.7104 14.2921 30.7777 14.3611C30.8451 14.4284 30.9213 14.4885 31.0004 14.5427C31.081 14.5953 31.1659 14.6408 31.2538 14.6775C31.3419 14.7141 31.434 14.7418 31.5277 14.7608C31.623 14.7799 31.7183 14.7886 31.8149 14.7886C31.9101 14.7886 32.0054 14.7797 32.1005 14.7608C32.1944 14.7418 32.2867 14.7141 32.3744 14.6775C32.4623 14.6408 32.5473 14.5953 32.6264 14.5427C32.7071 14.4885 32.7817 14.4284 32.849 14.3611C32.9179 14.2921 32.9779 14.2175 33.0321 14.1382C33.0847 14.0577 33.1303 13.9727 33.1669 13.885C33.2035 13.7969 33.2312 13.7048 33.2504 13.6111C33.2694 13.5158 33.2781 13.419 33.2781 13.3239C33.2781 13.2287 33.2693 13.1319 33.2504 13.0383Z" fill="#F08D31"/>
</g>
<defs>
<clipPath id="clip0">
<rect width="75" height="75" fill="white"/>
</clipPath>
</defs>
</svg>
