<svg width="75" height="75" viewBox="0 0 75 75" fill="none" xmlns="http://www.w3.org/2000/svg">
<g clip-path="url(#clip0)">
<path d="M12.5938 33.3689C11.9836 33.3689 11.4889 33.8636 11.4889 34.4738V36.4697C11.4889 44.7107 15.2226 52.3351 21.7328 57.3878L32.1703 65.4884C32.5558 65.7876 33.0178 65.9372 33.48 65.9372C33.9422 65.9372 34.4042 65.7876 34.7899 65.4884L42.9536 59.1522C43.4357 58.7779 43.5231 58.0839 43.149 57.6018C42.7749 57.1199 42.0808 57.0323 41.5986 57.4064L33.48 63.7076L23.0878 55.642C17.1209 51.0109 13.6988 44.023 13.6988 36.4697V34.4738C13.6988 33.8636 13.2041 33.3689 12.5938 33.3689Z" fill="#31ABF0" fill-opacity="0.89"/>
<path d="M33.48 67.4369C32.6434 67.4369 31.9652 68.1151 31.9652 68.9517C31.9652 69.7883 32.6434 70.4665 33.48 70.4665C34.3166 70.4665 34.9948 69.7883 34.9948 68.9517C34.9948 68.115 34.3166 67.4369 33.48 67.4369Z" fill="#31ABF0" fill-opacity="0.89"/>
<path d="M33.48 5.95947C32.6434 5.95947 31.9652 6.6377 31.9652 7.47427C31.9652 8.31084 32.6434 8.98906 33.48 8.98906C34.3166 8.98906 34.9948 8.31084 34.9948 7.47427C34.9948 6.63755 34.3166 5.95947 33.48 5.95947Z" fill="#31ABF0" fill-opacity="0.89"/>
<path d="M56.2828 16.3983C56.2828 17.2349 56.961 17.9131 57.7976 17.9131C58.6341 17.9131 59.3124 17.2349 59.3124 16.3983C59.3124 15.5618 58.6341 14.8835 57.7976 14.8835C56.961 14.8835 56.2828 15.5618 56.2828 16.3983Z" fill="#31ABF0" fill-opacity="0.89"/>
<path d="M7.46701 16.3983C7.46701 17.2349 8.14523 17.9131 8.98181 17.9131C9.81838 17.9131 10.4966 17.2349 10.4966 16.3983C10.4966 15.5618 9.81838 14.8835 8.98181 14.8835C8.14523 14.8835 7.46701 15.5618 7.46701 16.3983Z" fill="#31ABF0" fill-opacity="0.89"/>
<path d="M69.867 67.7553V40.9526C71.1599 40.345 72.0577 39.0306 72.0577 37.51C72.0577 35.4136 70.3522 33.7081 68.2557 33.7081H55.4711V20.291C55.4711 19.2034 54.6573 18.2912 53.5781 18.1693C49.3657 17.694 45.4419 16.8004 41.9156 15.5133C39.5499 14.65 37.4096 13.6195 35.5541 12.4501C34.2942 11.6559 32.666 11.6561 31.4059 12.4503C29.5503 13.6197 27.41 14.6502 25.0444 15.5133C21.5181 16.8003 17.5944 17.694 13.3819 18.1693C12.3028 18.2912 11.4889 19.2034 11.4889 20.291V29.2487C11.4889 29.8589 11.9836 30.3536 12.5938 30.3536C13.2041 30.3536 13.6988 29.8589 13.6988 29.2487V20.3575C18.059 19.8605 22.1307 18.9292 25.8019 17.5894C28.3142 16.6727 30.5962 15.5726 32.5841 14.3199C33.1368 13.9718 33.8234 13.9714 34.3759 14.3197C36.3637 15.5726 38.6456 16.6726 41.1581 17.5894C44.8293 18.9293 48.9011 19.8604 53.2613 20.3575V33.708H47.3395C45.243 33.708 43.5375 35.4135 43.5375 37.5098C43.5375 39.0362 44.442 40.3545 45.7428 40.9591V65.0084L37.4855 71.4171C36.3447 72.3023 34.9221 72.79 33.48 72.79C32.0169 72.79 30.6319 72.3154 29.4748 71.4173L17.6888 62.2701C13.8082 59.2582 10.6151 55.3342 8.45462 50.9225C6.29412 46.5111 5.15228 41.5828 5.15228 36.6705V12.5877C5.15228 12.3054 5.38196 12.0741 5.66424 12.0721L9.24681 12.046C21.491 11.9571 27.4519 7.81099 29.9155 5.34756C30.6659 4.59697 31.3635 3.79424 31.9887 2.96147C32.3474 2.4835 32.8947 2.20972 33.4907 2.20972C33.4923 2.20972 33.4938 2.20972 33.4954 2.20986C34.0888 2.21118 34.6321 2.48511 34.9859 2.96104C35.6144 3.80669 36.3072 4.60957 37.0451 5.34756C39.0285 7.33081 45.0127 11.9539 57.7138 12.046L61.2964 12.0721C61.5786 12.0741 61.8083 12.3054 61.8083 12.5877V29.2027C61.8083 29.8129 62.303 30.3076 62.9133 30.3076C63.5235 30.3076 64.0182 29.8129 64.0182 29.2027V12.5877C64.0182 11.0958 62.8044 9.87319 61.3126 9.86221L57.7301 9.83613C45.8467 9.74985 40.3988 5.57549 38.608 3.78501C37.946 3.1229 37.3242 2.4022 36.7596 1.64282C35.9855 0.601758 34.7978 0.00307617 33.5005 0C33.4971 0 33.4938 0 33.4904 0C32.1927 0 31.0015 0.595313 30.2212 1.63462C29.6584 2.38433 29.0297 3.10781 28.3526 3.78486C26.1283 6.00923 20.6865 9.75293 9.23055 9.83613L5.64798 9.86221C4.15618 9.87319 2.94241 11.0958 2.94241 12.5877V36.6706C2.94241 41.918 4.16219 47.1823 6.4699 51.8947C8.77776 56.6073 12.1887 60.7986 16.3339 64.016L28.1199 73.1632C29.6461 74.3477 31.5496 75 33.48 75C35.4102 75 37.3139 74.3477 38.8405 73.1631L44.2843 68.938C43.8154 69.5703 43.5376 70.3522 43.5376 71.1979C43.5376 73.2943 45.2431 74.9999 47.3396 74.9999H68.2558C70.3522 74.9999 72.0578 73.2943 72.0578 71.1979C72.0577 69.6773 71.16 68.3629 69.867 67.7553ZM47.9527 54.9571C48.8852 54.0048 49.745 52.9838 50.5211 51.9064C51.3184 52.8727 52.2488 53.6873 53.2654 54.2804C50.6688 55.7955 48.6309 58.7517 47.9527 62.0052V54.9571ZM47.9527 46.5555C48.1999 47.7419 48.629 48.888 49.1991 49.9397C48.8094 50.5217 48.3928 51.087 47.9527 51.6344V46.5555ZM49.9197 64.317C49.9197 60.3816 52.6488 56.3742 55.8794 55.5662C56.4697 55.4183 56.8819 54.8893 56.8816 54.2799C56.8815 53.6706 56.4691 53.1417 55.8789 52.9942C52.6487 52.1864 49.9195 48.179 49.9195 44.2434V41.312H65.6752V44.2434C65.6752 48.179 62.9461 52.1864 59.7161 52.9942C59.1258 53.1417 58.7133 53.6704 58.7131 54.2799C58.713 54.8893 59.125 55.4184 59.7158 55.5664C62.9461 56.3742 65.6752 60.3816 65.6752 64.317V67.3959H49.9197V64.317ZM67.6572 62.0792C66.9945 58.7965 64.9459 55.8067 62.3298 54.2804C64.946 52.7539 66.9945 49.7643 67.6572 46.4815V62.0792ZM47.3395 35.9178H68.2557C69.1336 35.9178 69.8478 36.6319 69.8478 37.51C69.8478 38.3878 69.1336 39.1022 68.2557 39.1022H47.3395C46.4614 39.1022 45.7472 38.388 45.7472 37.51C45.7473 36.6321 46.4616 35.9178 47.3395 35.9178ZM68.2557 72.7901H47.3395C46.4614 72.7901 45.7472 72.0759 45.7472 71.1979C45.7472 70.32 46.4614 69.6056 47.3395 69.6056H68.2557C69.1336 69.6056 69.8478 70.3198 69.8478 71.1979C69.8478 72.0759 69.1336 72.7901 68.2557 72.7901Z" fill="#31ABF0" fill-opacity="0.89"/>
<path d="M28.4176 46.7421H28.4329C29.4549 46.7421 30.404 46.2817 31.0363 45.479L45.0036 27.7544C45.5518 27.0588 45.7961 26.1917 45.692 25.3125C45.5877 24.4331 45.1473 23.6471 44.4518 23.0992C43.7563 22.5512 42.8891 22.3069 42.0101 22.4109C41.1307 22.515 40.3447 22.9555 39.7968 23.651L28.4704 38.0242L23.3197 31.2985C22.2087 29.8476 20.1241 29.5708 18.6725 30.6821C17.9695 31.2205 17.5183 32.0003 17.4019 32.8781C17.2854 33.7558 17.5177 34.6264 18.0561 35.3294L25.8011 45.4426C26.4281 46.2612 27.3789 46.7349 28.4176 46.7421ZM19.5925 33.1686C19.6314 32.876 19.7818 32.6162 20.0159 32.4369C20.2161 32.2837 20.4523 32.2095 20.6868 32.2095C21.0191 32.2095 21.348 32.3585 21.5651 32.6421L27.5806 40.497C27.788 40.7677 28.109 40.9277 28.4503 40.93C28.786 40.928 29.1148 40.777 29.3257 40.5089L41.5325 25.0185C41.715 24.7867 41.977 24.6399 42.2701 24.6051C42.5636 24.5709 42.8524 24.652 43.0842 24.8346C43.316 25.0173 43.4628 25.2794 43.4975 25.5723C43.5322 25.8653 43.4507 26.1544 43.2681 26.3863L29.3008 44.1111C29.09 44.3786 28.7737 44.5321 28.433 44.5321H28.4254C28.0816 44.5298 27.7646 44.3718 27.5557 44.0989L19.8107 33.9855C19.6311 33.7514 19.5536 33.4612 19.5925 33.1686Z" fill="#31ABF0" fill-opacity="0.89"/>
</g>
<defs>
<clipPath id="clip0">
<rect width="75" height="75" fill="white"/>
</clipPath>
</defs>
</svg>
